<svg version="1.1" viewBox="0.0 0.0 799.8451443569554 172.10236220472441" fill="none" stroke="none" stroke-linecap="square" stroke-miterlimit="10" xmlns:xlink="http://www.w3.org/1999/xlink" xmlns="http://www.w3.org/2000/svg"><clipPath id="p.0"><path d="m0 0l799.84515 0l0 172.10236l-799.84515 0l0 -172.10236z" clip-rule="nonzero"/></clipPath><g clip-path="url(#p.0)"><path fill="#000000" fill-opacity="0.0" d="m0 0l799.84515 0l0 172.10236l-799.84515 0z" fill-rule="evenodd"/><path fill="#000000" fill-opacity="0.0" d="m0 -4.2047243l792.25195 0l0 174.51968l-792.25195 0z" fill-rule="evenodd"/><path fill="#000000" d="m58.125 128.92528q-12.0625 0 -21.59375 -5.71875q-9.53125 -5.71875 -15.0 -16.4375q-5.46875 -10.71875 -5.46875 -25.59375q0 -14.9375 5.46875 -25.656246q5.46875 -10.71875 15.0 -16.46875q9.53125 -5.75 21.59375 -5.75q12.0625 0 21.53125 5.75q9.46875 5.75 14.9375 16.46875q5.46875 10.718746 5.46875 25.656246q0 14.875 -5.46875 25.59375q-5.46875 10.71875 -14.9375 16.4375q-9.46875 5.71875 -21.53125 5.71875zm0 -13.0q7.9375 0 14.21875 -3.96875q6.28125 -3.96875 9.9375 -11.75q3.65625 -7.78125 3.65625 -19.03125q0 -11.375 -3.65625 -19.156246q-3.65625 -7.78125 -9.9375 -11.75q-6.28125 -3.96875 -14.21875 -3.96875q-8.0 0 -14.3125 4.0q-6.3125 4.0 -9.96875 11.78125q-3.65625 7.781246 -3.65625 19.093746q0 11.25 3.65625 19.0q3.65625 7.75 9.96875 11.75q6.3125 4.0 14.3125 4.0zm58.25 37.875l0 -96.0l13.375 0l0 11.374996l1.125 0q1.25 -2.1875 3.46875 -5.0625q2.21875 -2.8749962 6.1875 -5.031246q3.96875 -2.15625 10.53125 -2.15625q8.375 0 14.96875 4.25q6.59375 4.249996 10.40625 12.312496q3.8125 8.0625 3.8125 19.4375q0 11.25 -3.75 19.34375q-3.75 8.09375 -10.34375 12.4375q-6.59375 4.34375 -15.09375 4.34375q-6.3125 0 -10.34375 -2.15625q-4.03125 -2.15625 -6.3125 -5.03125q-2.28125 -2.875 -3.53125 -5.125l-0.75 0l0 37.0625l-13.75 0zm31.625 -36.4375q6.0 0 10.0625 -3.25q4.0625 -3.25 6.09375 -8.8125q2.03125 -5.5625 2.03125 -12.5q0 -6.875 -2.03125 -12.34375q-2.03125 -5.46875 -6.0625 -8.65625q-4.03125 -3.1875 -10.09375 -3.1875q-5.875 0 -9.9375 3.03125q-4.0625 3.03125 -6.125 8.4375q-2.0625 5.40625 -2.0625 12.71875q0 7.25 2.09375 12.78125q2.09375 5.53125 6.15625 8.65625q4.0625 3.125 9.875 3.125zm77.625 11.75q-10.3125 0 -17.8125 -4.4375q-7.5 -4.4375 -11.53125 -12.5q-4.03125 -8.0625 -4.03125 -18.9375q0 -10.75 3.96875 -18.9375q3.96875 -8.1875 11.21875 -12.781246q7.25 -4.59375 17.0 -4.59375q6.0 0 11.5625 1.96875q5.5625 1.96875 10.0 6.156246q4.4375 4.1875 7.03125 10.84375q2.59375 6.65625 2.59375 16.15625l0 4.875l-55.6875 0l0 -10.25l48.625 0l-6.4375 3.375q0 -6.4375 -2.0 -11.34375q-2.0 -4.90625 -5.90625 -7.65625q-3.90625 -2.75 -9.78125 -2.75q-5.8125 0 -9.9375 2.8125q-4.125 2.8125 -6.28125 7.40625q-2.15625 4.59375 -2.15625 10.03125l0 7.0q0 7.1875 2.46875 12.15625q2.46875 4.96875 6.90625 7.5q4.4375 2.53125 10.3125 2.53125q3.875 0 7.0 -1.09375q3.125 -1.09375 5.40625 -3.3125q2.28125 -2.21875 3.46875 -5.46875l12.9375 3.0625q-1.6875 5.375 -5.65625 9.5q-3.96875 4.125 -9.875 6.40625q-5.90625 2.28125 -13.40625 2.28125zm58.8125 -42.8125l0 41.375l-13.75 0l0 -69.875l13.125 0l0.125 17.124996l-1.4375 0q3.0625 -9.375 8.875 -13.687496q5.8125 -4.3125 14.0625 -4.3125q7.125 0 12.4375 3.0q5.3125 3.0 8.3125 8.843746q3.0 5.84375 3.0 14.53125l0 44.375l-13.75 0l0 -42.6875q0 -7.5625 -3.9375 -11.8125q-3.9375 -4.25 -10.8125 -4.25q-4.625 0 -8.3125 2.03125q-3.6875 2.03125 -5.8125 5.90625q-2.125 3.875 -2.125 9.4375zm75.9375 41.375l-25.25 -93.125l15.0 0l13.4375 53.374996q1.25 4.9375 2.3125 10.25q1.0625 5.3125 2.09375 10.75q1.03125 5.4375 1.96875 10.875l-2.125 0q1.0 -5.4375 2.0625 -10.875q1.0625 -5.4375 2.1875 -10.75q1.125 -5.3125 2.4375 -10.25l13.8125 -53.374996l15.625 0l13.6875 53.374996q1.3125 4.9375 2.4375 10.25q1.125 5.3125 2.21875 10.75q1.09375 5.4375 2.09375 10.875l-2.25 0q1.0 -5.4375 2.0 -10.875q1.0 -5.4375 2.15625 -10.75q1.15625 -5.3125 2.28125 -10.25l13.4375 -53.374996l15.125 0l-25.375 93.125l-16.4375 0l-14.8125 -55.1875q-1.6875 -6.5 -3.125 -14.124996q-1.4375 -7.625 -2.9375 -16.75l3.25 0q-1.5625 8.75 -2.84375 16.1875q-1.28125 7.437496 -3.21875 14.687496l-14.75 55.1875l-16.5 0zm132.875 1.4375q-10.3125 0 -17.8125 -4.4375q-7.5 -4.4375 -11.53125 -12.5q-4.03125 -8.0625 -4.03125 -18.9375q0 -10.75 3.96875 -18.9375q3.96875 -8.1875 11.21875 -12.781246q7.25 -4.59375 17.0 -4.59375q6.0 0 11.5625 1.96875q5.5625 1.96875 10.0 6.156246q4.4375 4.1875 7.03125 10.84375q2.59375 6.65625 2.59375 16.15625l0 4.875l-55.6875 0l0 -10.25l48.625 0l-6.4375 3.375q0 -6.4375 -2.0 -11.34375q-2.0 -4.90625 -5.90625 -7.65625q-3.90625 -2.75 -9.78125 -2.75q-5.8125 0 -9.9375 2.8125q-4.125 2.8125 -6.28125 7.40625q-2.15625 4.59375 -2.15625 10.03125l0 7.0q0 7.1875 2.46875 12.15625q2.46875 4.96875 6.90625 7.5q4.4375 2.53125 10.3125 2.53125q3.875 0 7.0 -1.09375q3.125 -1.09375 5.40625 -3.3125q2.28125 -2.21875 3.46875 -5.46875l12.9375 3.0625q-1.6875 5.375 -5.65625 9.5q-3.96875 4.125 -9.875 6.40625q-5.90625 2.28125 -13.40625 2.28125zm65.875 0.125q-6.625 0 -12.0 -2.46875q-5.375 -2.46875 -8.5 -7.21875q-3.125 -4.75 -3.125 -11.625q0 -5.9375 2.28125 -9.75q2.28125 -3.8125 6.1875 -6.0625q3.90625 -2.25 8.6875 -3.375q4.78125 -1.125 9.71875 -1.6875q6.1875 -0.75 10.0625 -1.21875q3.875 -0.46875 5.71875 -1.5625q1.84375 -1.09375 1.84375 -3.53125l0 -0.375q0 -3.9375 -1.5 -6.625q-1.5 -2.6875 -4.46875 -4.15625q-2.96875 -1.46875 -7.40625 -1.46875q-4.5625 0 -7.84375 1.40625q-3.28125 1.40625 -5.3125 3.59375q-2.03125 2.1875 -3.03125 4.5625l-12.9375 -3.375q2.375 -6.25 6.8125 -10.0625q4.4375 -3.8124962 10.1875 -5.562496q5.75 -1.75 11.875 -1.75q4.25 0 9.0 1.0q4.75 1.0 8.9375 3.625q4.1875 2.6249962 6.8125 7.374996q2.625 4.75 2.625 12.375l0 46.375l-13.3125 0l0 -9.5625l-0.6875 0q-1.375 2.6875 -4.0625 5.25q-2.6875 2.5625 -6.78125 4.21875q-4.09375 1.65625 -9.78125 1.65625zm3.0625 -11.0625q5.625 0 9.625 -2.1875q4.0 -2.1875 6.125 -5.8125q2.125 -3.625 2.125 -7.6875l0 -8.9375q-0.75 0.75 -2.84375 1.34375q-2.09375 0.59375 -4.78125 1.0625q-2.6875 0.46875 -5.1875 0.78125q-2.5 0.3125 -4.125 0.5q-3.875 0.5 -7.09375 1.6875q-3.21875 1.1875 -5.125 3.375q-1.90625 2.1875 -1.90625 5.8125q0 3.3125 1.71875 5.5625q1.71875 2.25 4.65625 3.375q2.9375 1.125 6.8125 1.125zm50.0625 9.5l0 -69.875l13.3125 0l0 11.249996l0.75 0q1.9375 -5.749996 6.75 -8.999996q4.8125 -3.25 10.9375 -3.25q1.3125 0 3.0 0.09375q1.6875 0.09375 2.8125 0.28125l0 13.124996q-0.75 -0.25 -2.875 -0.5q-2.125 -0.25 -4.3125 -0.25q-4.75 0 -8.5625 2.0q-3.8125 2.0 -5.9375 5.53125q-2.125 3.53125 -2.125 8.15625l0 42.4375l-13.75 0zm38.375 0l33.125 -93.125l17.5 0l33.75 93.125l-15.4375 0l-18.125 -51.8125q-2.125 -6.3125 -4.65625 -14.874996q-2.53125 -8.5625 -5.84375 -20.5625l2.875 0q-3.1875 12.125 -5.71875 20.78125q-2.53125 8.656246 -4.46875 14.656246l-17.5625 51.8125l-15.4375 0zm17.9375 -24.5625l0 -11.875l48.4375 0l0 11.875l-48.4375 0z" fill-rule="nonzero"/><path fill="#000000" d="m762.75 34.55028l0 93.125l-14.25 0l0 -93.125l14.25 0z" fill-rule="nonzero"/></g></svg>